<?xml version="1.0" encoding="utf-8"?>
<svg xmlns="http://www.w3.org/2000/svg" xmlns:xlink="http://www.w3.org/1999/xlink" width="600" height="400" viewBox="0 0 2400 1600">
<defs>
  <clipPath id="clip860">
    <rect x="0" y="0" width="2400" height="1600"/>
  </clipPath>
</defs>
<path clip-path="url(#clip860)" d="
M0 1600 L2400 1600 L2400 0 L0 0  Z
  " fill="#ffffff" fill-rule="evenodd" fill-opacity="1"/>
<defs>
  <clipPath id="clip861">
    <rect x="480" y="0" width="1681" height="1600"/>
  </clipPath>
</defs>
<path clip-path="url(#clip860)" d="
M219.866 1423.18 L2352.76 1423.18 L2352.76 47.2441 L219.866 47.2441  Z
  " fill="#ffffff" fill-rule="evenodd" fill-opacity="1"/>
<defs>
  <clipPath id="clip862">
    <rect x="219" y="47" width="2134" height="1377"/>
  </clipPath>
</defs>
<polyline clip-path="url(#clip862)" style="stroke:#000000; stroke-width:2; stroke-opacity:0.1; fill:none" points="
  257.361,1423.18 257.361,47.2441 
  "/>
<polyline clip-path="url(#clip862)" style="stroke:#000000; stroke-width:2; stroke-opacity:0.1; fill:none" points="
  913.402,1423.18 913.402,47.2441 
  "/>
<polyline clip-path="url(#clip862)" style="stroke:#000000; stroke-width:2; stroke-opacity:0.1; fill:none" points="
  1569.44,1423.18 1569.44,47.2441 
  "/>
<polyline clip-path="url(#clip862)" style="stroke:#000000; stroke-width:2; stroke-opacity:0.1; fill:none" points="
  2225.49,1423.18 2225.49,47.2441 
  "/>
<polyline clip-path="url(#clip860)" style="stroke:#000000; stroke-width:4; stroke-opacity:1; fill:none" points="
  219.866,1423.18 2352.76,1423.18 
  "/>
<polyline clip-path="url(#clip860)" style="stroke:#000000; stroke-width:4; stroke-opacity:1; fill:none" points="
  257.361,1423.18 257.361,1406.67 
  "/>
<polyline clip-path="url(#clip860)" style="stroke:#000000; stroke-width:4; stroke-opacity:1; fill:none" points="
  913.402,1423.18 913.402,1406.67 
  "/>
<polyline clip-path="url(#clip860)" style="stroke:#000000; stroke-width:4; stroke-opacity:1; fill:none" points="
  1569.44,1423.18 1569.44,1406.67 
  "/>
<polyline clip-path="url(#clip860)" style="stroke:#000000; stroke-width:4; stroke-opacity:1; fill:none" points="
  2225.49,1423.18 2225.49,1406.67 
  "/>
<path clip-path="url(#clip860)" d="M 0 0 M257.361 1452.37 Q253.749 1452.37 251.921 1455.94 Q250.115 1459.48 250.115 1466.61 Q250.115 1473.71 251.921 1477.28 Q253.749 1480.82 257.361 1480.82 Q260.995 1480.82 262.8 1477.28 Q264.629 1473.71 264.629 1466.61 Q264.629 1459.48 262.8 1455.94 Q260.995 1452.37 257.361 1452.37 M257.361 1448.67 Q263.171 1448.67 266.226 1453.27 Q269.305 1457.86 269.305 1466.61 Q269.305 1475.33 266.226 1479.94 Q263.171 1484.52 257.361 1484.52 Q251.55 1484.52 248.472 1479.94 Q245.416 1475.33 245.416 1466.61 Q245.416 1457.86 248.472 1453.27 Q251.55 1448.67 257.361 1448.67 Z" fill="#000000" fill-rule="evenodd" fill-opacity="1" /><path clip-path="url(#clip860)" d="M 0 0 M888.09 1479.92 L895.729 1479.92 L895.729 1453.55 L887.419 1455.22 L887.419 1450.96 L895.683 1449.29 L900.358 1449.29 L900.358 1479.92 L907.997 1479.92 L907.997 1483.85 L888.09 1483.85 L888.09 1479.92 Z" fill="#000000" fill-rule="evenodd" fill-opacity="1" /><path clip-path="url(#clip860)" d="M 0 0 M927.442 1452.37 Q923.831 1452.37 922.002 1455.94 Q920.196 1459.48 920.196 1466.61 Q920.196 1473.71 922.002 1477.28 Q923.831 1480.82 927.442 1480.82 Q931.076 1480.82 932.881 1477.28 Q934.71 1473.71 934.71 1466.61 Q934.71 1459.48 932.881 1455.94 Q931.076 1452.37 927.442 1452.37 M927.442 1448.67 Q933.252 1448.67 936.307 1453.27 Q939.386 1457.86 939.386 1466.61 Q939.386 1475.33 936.307 1479.94 Q933.252 1484.52 927.442 1484.52 Q921.632 1484.52 918.553 1479.94 Q915.497 1475.33 915.497 1466.61 Q915.497 1457.86 918.553 1453.27 Q921.632 1448.67 927.442 1448.67 Z" fill="#000000" fill-rule="evenodd" fill-opacity="1" /><path clip-path="url(#clip860)" d="M 0 0 M1548.22 1479.92 L1564.54 1479.92 L1564.54 1483.85 L1542.59 1483.85 L1542.59 1479.92 Q1545.25 1477.16 1549.84 1472.53 Q1554.44 1467.88 1555.62 1466.54 Q1557.87 1464.01 1558.75 1462.28 Q1559.65 1460.52 1559.65 1458.83 Q1559.65 1456.07 1557.71 1454.34 Q1555.79 1452.6 1552.69 1452.6 Q1550.49 1452.6 1548.03 1453.37 Q1545.6 1454.13 1542.82 1455.68 L1542.82 1450.96 Q1545.65 1449.82 1548.1 1449.25 Q1550.56 1448.67 1552.59 1448.67 Q1557.96 1448.67 1561.16 1451.35 Q1564.35 1454.04 1564.35 1458.53 Q1564.35 1460.66 1563.54 1462.58 Q1562.75 1464.48 1560.65 1467.07 Q1560.07 1467.74 1556.97 1470.96 Q1553.87 1474.15 1548.22 1479.92 Z" fill="#000000" fill-rule="evenodd" fill-opacity="1" /><path clip-path="url(#clip860)" d="M 0 0 M1584.35 1452.37 Q1580.74 1452.37 1578.91 1455.94 Q1577.11 1459.48 1577.11 1466.61 Q1577.11 1473.71 1578.91 1477.28 Q1580.74 1480.82 1584.35 1480.82 Q1587.99 1480.82 1589.79 1477.28 Q1591.62 1473.71 1591.62 1466.61 Q1591.62 1459.48 1589.79 1455.94 Q1587.99 1452.37 1584.35 1452.37 M1584.35 1448.67 Q1590.16 1448.67 1593.22 1453.27 Q1596.3 1457.86 1596.3 1466.61 Q1596.3 1475.33 1593.22 1479.94 Q1590.16 1484.52 1584.35 1484.52 Q1578.54 1484.52 1575.46 1479.94 Q1572.41 1475.33 1572.41 1466.61 Q1572.41 1457.86 1575.46 1453.27 Q1578.54 1448.67 1584.35 1448.67 Z" fill="#000000" fill-rule="evenodd" fill-opacity="1" /><path clip-path="url(#clip860)" d="M 0 0 M2214.33 1465.22 Q2217.69 1465.94 2219.56 1468.2 Q2221.46 1470.47 2221.46 1473.81 Q2221.46 1478.92 2217.94 1481.72 Q2214.42 1484.52 2207.94 1484.52 Q2205.76 1484.52 2203.45 1484.08 Q2201.16 1483.67 2198.7 1482.81 L2198.7 1478.3 Q2200.65 1479.43 2202.96 1480.01 Q2205.28 1480.59 2207.8 1480.59 Q2212.2 1480.59 2214.49 1478.85 Q2216.81 1477.12 2216.81 1473.81 Q2216.81 1470.75 2214.65 1469.04 Q2212.52 1467.3 2208.7 1467.3 L2204.68 1467.3 L2204.68 1463.46 L2208.89 1463.46 Q2212.34 1463.46 2214.17 1462.09 Q2216 1460.7 2216 1458.11 Q2216 1455.45 2214.1 1454.04 Q2212.22 1452.6 2208.7 1452.6 Q2206.78 1452.6 2204.58 1453.02 Q2202.38 1453.44 2199.75 1454.31 L2199.75 1450.15 Q2202.41 1449.41 2204.72 1449.04 Q2207.06 1448.67 2209.12 1448.67 Q2214.44 1448.67 2217.55 1451.1 Q2220.65 1453.5 2220.65 1457.63 Q2220.65 1460.5 2219 1462.49 Q2217.36 1464.45 2214.33 1465.22 Z" fill="#000000" fill-rule="evenodd" fill-opacity="1" /><path clip-path="url(#clip860)" d="M 0 0 M2240.32 1452.37 Q2236.71 1452.37 2234.88 1455.94 Q2233.08 1459.48 2233.08 1466.61 Q2233.08 1473.71 2234.88 1477.28 Q2236.71 1480.82 2240.32 1480.82 Q2243.96 1480.82 2245.76 1477.28 Q2247.59 1473.71 2247.59 1466.61 Q2247.59 1459.48 2245.76 1455.94 Q2243.96 1452.37 2240.32 1452.37 M2240.32 1448.67 Q2246.13 1448.67 2249.19 1453.27 Q2252.27 1457.86 2252.27 1466.61 Q2252.27 1475.33 2249.19 1479.94 Q2246.13 1484.52 2240.32 1484.52 Q2234.51 1484.52 2231.44 1479.94 Q2228.38 1475.33 2228.38 1466.61 Q2228.38 1457.86 2231.44 1453.27 Q2234.51 1448.67 2240.32 1448.67 Z" fill="#000000" fill-rule="evenodd" fill-opacity="1" /><path clip-path="url(#clip860)" d="M 0 0 M1018.09 1520.52 L1058.29 1520.52 L1058.29 1525.93 L1041.42 1525.93 L1041.42 1568.04 L1034.96 1568.04 L1034.96 1525.93 L1018.09 1525.93 L1018.09 1520.52 Z" fill="#000000" fill-rule="evenodd" fill-opacity="1" /><path clip-path="url(#clip860)" d="M 0 0 M1062.24 1532.4 L1068.09 1532.4 L1068.09 1568.04 L1062.24 1568.04 L1062.24 1532.4 M1062.24 1518.52 L1068.09 1518.52 L1068.09 1525.93 L1062.24 1525.93 L1062.24 1518.52 Z" fill="#000000" fill-rule="evenodd" fill-opacity="1" /><path clip-path="url(#clip860)" d="M 0 0 M1108.1 1539.24 Q1110.3 1535.29 1113.35 1533.41 Q1116.41 1531.54 1120.55 1531.54 Q1126.12 1531.54 1129.14 1535.45 Q1132.17 1539.33 1132.17 1546.53 L1132.17 1568.04 L1126.28 1568.04 L1126.28 1546.72 Q1126.28 1541.59 1124.46 1539.11 Q1122.65 1536.63 1118.92 1536.63 Q1114.37 1536.63 1111.73 1539.65 Q1109.09 1542.68 1109.09 1547.9 L1109.09 1568.04 L1103.2 1568.04 L1103.2 1546.72 Q1103.2 1541.56 1101.39 1539.11 Q1099.57 1536.63 1095.79 1536.63 Q1091.3 1536.63 1088.66 1539.68 Q1086.01 1542.71 1086.01 1547.9 L1086.01 1568.04 L1080.13 1568.04 L1080.13 1532.4 L1086.01 1532.4 L1086.01 1537.93 Q1088.02 1534.66 1090.82 1533.1 Q1093.62 1531.54 1097.47 1531.54 Q1101.36 1531.54 1104.06 1533.51 Q1106.8 1535.48 1108.1 1539.24 Z" fill="#000000" fill-rule="evenodd" fill-opacity="1" /><path clip-path="url(#clip860)" d="M 0 0 M1174.34 1548.76 L1174.34 1551.62 L1147.41 1551.62 Q1147.79 1557.67 1151.04 1560.85 Q1154.32 1564 1160.14 1564 Q1163.52 1564 1166.67 1563.17 Q1169.85 1562.35 1172.97 1560.69 L1172.97 1566.23 Q1169.82 1567.57 1166.51 1568.27 Q1163.2 1568.97 1159.79 1568.97 Q1151.26 1568.97 1146.27 1564 Q1141.3 1559.04 1141.3 1550.57 Q1141.3 1541.82 1146.01 1536.69 Q1150.75 1531.54 1158.77 1531.54 Q1165.97 1531.54 1170.14 1536.18 Q1174.34 1540.8 1174.34 1548.76 M1168.48 1547.04 Q1168.42 1542.23 1165.78 1539.37 Q1163.17 1536.5 1158.84 1536.5 Q1153.94 1536.5 1150.98 1539.27 Q1148.05 1542.04 1147.6 1547.07 L1168.48 1547.04 Z" fill="#000000" fill-rule="evenodd" fill-opacity="1" /><path clip-path="url(#clip860)" d="M 0 0 M1204.93 1520.52 L1234.97 1520.52 L1234.97 1525.93 L1211.35 1525.93 L1211.35 1540 L1233.98 1540 L1233.98 1545.41 L1211.35 1545.41 L1211.35 1562.63 L1235.54 1562.63 L1235.54 1568.04 L1204.93 1568.04 L1204.93 1520.52 Z" fill="#000000" fill-rule="evenodd" fill-opacity="1" /><path clip-path="url(#clip860)" d="M 0 0 M1245.86 1518.52 L1251.71 1518.52 L1251.71 1568.04 L1245.86 1568.04 L1245.86 1518.52 Z" fill="#000000" fill-rule="evenodd" fill-opacity="1" /><path clip-path="url(#clip860)" d="M 0 0 M1280.17 1550.12 Q1273.07 1550.12 1270.33 1551.75 Q1267.6 1553.37 1267.6 1557.29 Q1267.6 1560.4 1269.63 1562.25 Q1271.7 1564.07 1275.23 1564.07 Q1280.1 1564.07 1283.03 1560.63 Q1285.99 1557.16 1285.99 1551.43 L1285.99 1550.12 L1280.17 1550.12 M1291.85 1547.71 L1291.85 1568.04 L1285.99 1568.04 L1285.99 1562.63 Q1283.99 1565.88 1281 1567.44 Q1278 1568.97 1273.68 1568.97 Q1268.2 1568.97 1264.95 1565.91 Q1261.74 1562.82 1261.74 1557.67 Q1261.74 1551.65 1265.75 1548.6 Q1269.79 1545.54 1277.78 1545.54 L1285.99 1545.54 L1285.99 1544.97 Q1285.99 1540.93 1283.32 1538.73 Q1280.68 1536.5 1275.87 1536.5 Q1272.82 1536.5 1269.92 1537.23 Q1267.02 1537.97 1264.35 1539.43 L1264.35 1534.02 Q1267.56 1532.78 1270.59 1532.17 Q1273.61 1531.54 1276.48 1531.54 Q1284.21 1531.54 1288.03 1535.55 Q1291.85 1539.56 1291.85 1547.71 Z" fill="#000000" fill-rule="evenodd" fill-opacity="1" /><path clip-path="url(#clip860)" d="M 0 0 M1309.58 1562.7 L1309.58 1581.6 L1303.69 1581.6 L1303.69 1532.4 L1309.58 1532.4 L1309.58 1537.81 Q1311.42 1534.62 1314.22 1533.1 Q1317.06 1531.54 1320.97 1531.54 Q1327.47 1531.54 1331.51 1536.69 Q1335.58 1541.85 1335.58 1550.25 Q1335.58 1558.65 1331.51 1563.81 Q1327.47 1568.97 1320.97 1568.97 Q1317.06 1568.97 1314.22 1567.44 Q1311.42 1565.88 1309.58 1562.7 M1329.5 1550.25 Q1329.5 1543.79 1326.83 1540.13 Q1324.19 1536.44 1319.54 1536.44 Q1314.89 1536.44 1312.22 1540.13 Q1309.58 1543.79 1309.58 1550.25 Q1309.58 1556.71 1312.22 1560.4 Q1314.89 1564.07 1319.54 1564.07 Q1324.19 1564.07 1326.83 1560.4 Q1329.5 1556.71 1329.5 1550.25 Z" fill="#000000" fill-rule="evenodd" fill-opacity="1" /><path clip-path="url(#clip860)" d="M 0 0 M1368.01 1533.45 L1368.01 1538.98 Q1365.53 1537.71 1362.86 1537.07 Q1360.19 1536.44 1357.32 1536.44 Q1352.96 1536.44 1350.76 1537.77 Q1348.6 1539.11 1348.6 1541.79 Q1348.6 1543.82 1350.16 1545 Q1351.72 1546.15 1356.43 1547.2 L1358.43 1547.64 Q1364.67 1548.98 1367.28 1551.43 Q1369.92 1553.85 1369.92 1558.21 Q1369.92 1563.17 1365.98 1566.07 Q1362.06 1568.97 1355.19 1568.97 Q1352.32 1568.97 1349.2 1568.39 Q1346.12 1567.85 1342.68 1566.74 L1342.68 1560.69 Q1345.93 1562.38 1349.08 1563.24 Q1352.23 1564.07 1355.32 1564.07 Q1359.45 1564.07 1361.68 1562.66 Q1363.91 1561.23 1363.91 1558.65 Q1363.91 1556.27 1362.29 1554.99 Q1360.69 1553.72 1355.25 1552.54 L1353.21 1552.07 Q1347.77 1550.92 1345.35 1548.56 Q1342.93 1546.18 1342.93 1542.04 Q1342.93 1537.01 1346.5 1534.27 Q1350.06 1531.54 1356.62 1531.54 Q1359.87 1531.54 1362.73 1532.01 Q1365.6 1532.49 1368.01 1533.45 Z" fill="#000000" fill-rule="evenodd" fill-opacity="1" /><path clip-path="url(#clip860)" d="M 0 0 M1409.74 1548.76 L1409.74 1551.62 L1382.82 1551.62 Q1383.2 1557.67 1386.44 1560.85 Q1389.72 1564 1395.55 1564 Q1398.92 1564 1402.07 1563.17 Q1405.25 1562.35 1408.37 1560.69 L1408.37 1566.23 Q1405.22 1567.57 1401.91 1568.27 Q1398.6 1568.97 1395.2 1568.97 Q1386.67 1568.97 1381.67 1564 Q1376.7 1559.04 1376.7 1550.57 Q1376.7 1541.82 1381.41 1536.69 Q1386.16 1531.54 1394.18 1531.54 Q1401.37 1531.54 1405.54 1536.18 Q1409.74 1540.8 1409.74 1548.76 M1403.89 1547.04 Q1403.82 1542.23 1401.18 1539.37 Q1398.57 1536.5 1394.24 1536.5 Q1389.34 1536.5 1386.38 1539.27 Q1383.45 1542.04 1383.01 1547.07 L1403.89 1547.04 Z" fill="#000000" fill-rule="evenodd" fill-opacity="1" /><path clip-path="url(#clip860)" d="M 0 0 M1442.81 1537.81 L1442.81 1518.52 L1448.67 1518.52 L1448.67 1568.04 L1442.81 1568.04 L1442.81 1562.7 Q1440.97 1565.88 1438.13 1567.44 Q1435.33 1568.97 1431.39 1568.97 Q1424.92 1568.97 1420.85 1563.81 Q1416.81 1558.65 1416.81 1550.25 Q1416.81 1541.85 1420.85 1536.69 Q1424.92 1531.54 1431.39 1531.54 Q1435.33 1531.54 1438.13 1533.1 Q1440.97 1534.62 1442.81 1537.81 M1422.86 1550.25 Q1422.86 1556.71 1425.5 1560.4 Q1428.17 1564.07 1432.82 1564.07 Q1437.46 1564.07 1440.14 1560.4 Q1442.81 1556.71 1442.81 1550.25 Q1442.81 1543.79 1440.14 1540.13 Q1437.46 1536.44 1432.82 1536.44 Q1428.17 1536.44 1425.5 1540.13 Q1422.86 1543.79 1422.86 1550.25 Z" fill="#000000" fill-rule="evenodd" fill-opacity="1" /><path clip-path="url(#clip860)" d="M 0 0 M1480.91 1518.52 L1494.41 1518.52 L1494.41 1523.07 L1486.77 1523.07 L1486.77 1572.09 L1494.41 1572.09 L1494.41 1576.64 L1480.91 1576.64 L1480.91 1518.52 Z" fill="#000000" fill-rule="evenodd" fill-opacity="1" /><path clip-path="url(#clip860)" d="M 0 0 M1529.61 1533.45 L1529.61 1538.98 Q1527.13 1537.71 1524.45 1537.07 Q1521.78 1536.44 1518.91 1536.44 Q1514.55 1536.44 1512.36 1537.77 Q1510.19 1539.11 1510.19 1541.79 Q1510.19 1543.82 1511.75 1545 Q1513.31 1546.15 1518.02 1547.2 L1520.03 1547.64 Q1526.27 1548.98 1528.88 1551.43 Q1531.52 1553.85 1531.52 1558.21 Q1531.52 1563.17 1527.57 1566.07 Q1523.66 1568.97 1516.78 1568.97 Q1513.92 1568.97 1510.8 1568.39 Q1507.71 1567.85 1504.27 1566.74 L1504.27 1560.69 Q1507.52 1562.38 1510.67 1563.24 Q1513.82 1564.07 1516.91 1564.07 Q1521.05 1564.07 1523.27 1562.66 Q1525.5 1561.23 1525.5 1558.65 Q1525.5 1556.27 1523.88 1554.99 Q1522.29 1553.72 1516.85 1552.54 L1514.81 1552.07 Q1509.37 1550.92 1506.95 1548.56 Q1504.53 1546.18 1504.53 1542.04 Q1504.53 1537.01 1508.09 1534.27 Q1511.66 1531.54 1518.21 1531.54 Q1521.46 1531.54 1524.32 1532.01 Q1527.19 1532.49 1529.61 1533.45 Z" fill="#000000" fill-rule="evenodd" fill-opacity="1" /><path clip-path="url(#clip860)" d="M 0 0 M1554.53 1518.52 L1554.53 1576.64 L1541.03 1576.64 L1541.03 1572.09 L1548.64 1572.09 L1548.64 1523.07 L1541.03 1523.07 L1541.03 1518.52 L1554.53 1518.52 Z" fill="#000000" fill-rule="evenodd" fill-opacity="1" /><polyline clip-path="url(#clip862)" style="stroke:#000000; stroke-width:2; stroke-opacity:0.1; fill:none" points="
  219.866,1228.86 2352.76,1228.86 
  "/>
<polyline clip-path="url(#clip862)" style="stroke:#000000; stroke-width:2; stroke-opacity:0.1; fill:none" points="
  219.866,1029.52 2352.76,1029.52 
  "/>
<polyline clip-path="url(#clip862)" style="stroke:#000000; stroke-width:2; stroke-opacity:0.1; fill:none" points="
  219.866,830.175 2352.76,830.175 
  "/>
<polyline clip-path="url(#clip862)" style="stroke:#000000; stroke-width:2; stroke-opacity:0.1; fill:none" points="
  219.866,630.833 2352.76,630.833 
  "/>
<polyline clip-path="url(#clip862)" style="stroke:#000000; stroke-width:2; stroke-opacity:0.1; fill:none" points="
  219.866,431.491 2352.76,431.491 
  "/>
<polyline clip-path="url(#clip862)" style="stroke:#000000; stroke-width:2; stroke-opacity:0.1; fill:none" points="
  219.866,232.149 2352.76,232.149 
  "/>
<polyline clip-path="url(#clip860)" style="stroke:#000000; stroke-width:4; stroke-opacity:1; fill:none" points="
  219.866,1423.18 219.866,47.2441 
  "/>
<polyline clip-path="url(#clip860)" style="stroke:#000000; stroke-width:4; stroke-opacity:1; fill:none" points="
  219.866,1228.86 245.461,1228.86 
  "/>
<polyline clip-path="url(#clip860)" style="stroke:#000000; stroke-width:4; stroke-opacity:1; fill:none" points="
  219.866,1029.52 245.461,1029.52 
  "/>
<polyline clip-path="url(#clip860)" style="stroke:#000000; stroke-width:4; stroke-opacity:1; fill:none" points="
  219.866,830.175 245.461,830.175 
  "/>
<polyline clip-path="url(#clip860)" style="stroke:#000000; stroke-width:4; stroke-opacity:1; fill:none" points="
  219.866,630.833 245.461,630.833 
  "/>
<polyline clip-path="url(#clip860)" style="stroke:#000000; stroke-width:4; stroke-opacity:1; fill:none" points="
  219.866,431.491 245.461,431.491 
  "/>
<polyline clip-path="url(#clip860)" style="stroke:#000000; stroke-width:4; stroke-opacity:1; fill:none" points="
  219.866,232.149 245.461,232.149 
  "/>
<path clip-path="url(#clip860)" d="M 0 0 M127.917 1214.66 Q124.306 1214.66 122.478 1218.22 Q120.672 1221.76 120.672 1228.89 Q120.672 1236 122.478 1239.57 Q124.306 1243.11 127.917 1243.11 Q131.552 1243.11 133.357 1239.57 Q135.186 1236 135.186 1228.89 Q135.186 1221.76 133.357 1218.22 Q131.552 1214.66 127.917 1214.66 M127.917 1210.95 Q133.728 1210.95 136.783 1215.56 Q139.862 1220.14 139.862 1228.89 Q139.862 1237.62 136.783 1242.23 Q133.728 1246.81 127.917 1246.81 Q122.107 1246.81 119.029 1242.23 Q115.973 1237.62 115.973 1228.89 Q115.973 1220.14 119.029 1215.56 Q122.107 1210.95 127.917 1210.95 Z" fill="#000000" fill-rule="evenodd" fill-opacity="1" /><path clip-path="url(#clip860)" d="M 0 0 M148.079 1240.26 L152.964 1240.26 L152.964 1246.14 L148.079 1246.14 L148.079 1240.26 Z" fill="#000000" fill-rule="evenodd" fill-opacity="1" /><path clip-path="url(#clip860)" d="M 0 0 M163.959 1242.2 L171.598 1242.2 L171.598 1215.84 L163.288 1217.51 L163.288 1213.25 L171.552 1211.58 L176.227 1211.58 L176.227 1242.2 L183.866 1242.2 L183.866 1246.14 L163.959 1246.14 L163.959 1242.2 Z" fill="#000000" fill-rule="evenodd" fill-opacity="1" /><path clip-path="url(#clip860)" d="M 0 0 M128.288 1015.32 Q124.677 1015.32 122.848 1018.88 Q121.043 1022.42 121.043 1029.55 Q121.043 1036.66 122.848 1040.22 Q124.677 1043.76 128.288 1043.76 Q131.922 1043.76 133.728 1040.22 Q135.556 1036.66 135.556 1029.55 Q135.556 1022.42 133.728 1018.88 Q131.922 1015.32 128.288 1015.32 M128.288 1011.61 Q134.098 1011.61 137.154 1016.22 Q140.232 1020.8 140.232 1029.55 Q140.232 1038.28 137.154 1042.89 Q134.098 1047.47 128.288 1047.47 Q122.478 1047.47 119.399 1042.89 Q116.343 1038.28 116.343 1029.55 Q116.343 1020.8 119.399 1016.22 Q122.478 1011.61 128.288 1011.61 Z" fill="#000000" fill-rule="evenodd" fill-opacity="1" /><path clip-path="url(#clip860)" d="M 0 0 M148.45 1040.92 L153.334 1040.92 L153.334 1046.8 L148.45 1046.8 L148.45 1040.92 Z" fill="#000000" fill-rule="evenodd" fill-opacity="1" /><path clip-path="url(#clip860)" d="M 0 0 M167.547 1042.86 L183.866 1042.86 L183.866 1046.8 L161.922 1046.8 L161.922 1042.86 Q164.584 1040.11 169.167 1035.48 Q173.774 1030.83 174.954 1029.48 Q177.2 1026.96 178.079 1025.22 Q178.982 1023.46 178.982 1021.77 Q178.982 1019.02 177.038 1017.28 Q175.116 1015.55 172.014 1015.55 Q169.815 1015.55 167.362 1016.31 Q164.931 1017.08 162.153 1018.63 L162.153 1013.9 Q164.977 1012.77 167.431 1012.19 Q169.885 1011.61 171.922 1011.61 Q177.292 1011.61 180.487 1014.3 Q183.681 1016.98 183.681 1021.47 Q183.681 1023.6 182.871 1025.52 Q182.084 1027.42 179.977 1030.01 Q179.399 1030.69 176.297 1033.9 Q173.195 1037.1 167.547 1042.86 Z" fill="#000000" fill-rule="evenodd" fill-opacity="1" /><path clip-path="url(#clip860)" d="M 0 0 M127.339 815.974 Q123.728 815.974 121.899 819.539 Q120.093 823.08 120.093 830.21 Q120.093 837.316 121.899 840.881 Q123.728 844.423 127.339 844.423 Q130.973 844.423 132.779 840.881 Q134.607 837.316 134.607 830.21 Q134.607 823.08 132.779 819.539 Q130.973 815.974 127.339 815.974 M127.339 812.27 Q133.149 812.27 136.204 816.877 Q139.283 821.46 139.283 830.21 Q139.283 838.937 136.204 843.543 Q133.149 848.126 127.339 848.126 Q121.529 848.126 118.45 843.543 Q115.394 838.937 115.394 830.21 Q115.394 821.46 118.45 816.877 Q121.529 812.27 127.339 812.27 Z" fill="#000000" fill-rule="evenodd" fill-opacity="1" /><path clip-path="url(#clip860)" d="M 0 0 M147.501 841.576 L152.385 841.576 L152.385 847.455 L147.501 847.455 L147.501 841.576 Z" fill="#000000" fill-rule="evenodd" fill-opacity="1" /><path clip-path="url(#clip860)" d="M 0 0 M176.737 828.821 Q180.093 829.539 181.968 831.807 Q183.866 834.076 183.866 837.409 Q183.866 842.525 180.348 845.326 Q176.829 848.126 170.348 848.126 Q168.172 848.126 165.857 847.687 Q163.565 847.27 161.112 846.414 L161.112 841.9 Q163.056 843.034 165.371 843.613 Q167.686 844.191 170.209 844.191 Q174.607 844.191 176.899 842.455 Q179.214 840.719 179.214 837.409 Q179.214 834.353 177.061 832.64 Q174.931 830.904 171.112 830.904 L167.084 830.904 L167.084 827.062 L171.297 827.062 Q174.746 827.062 176.575 825.696 Q178.403 824.307 178.403 821.715 Q178.403 819.053 176.505 817.641 Q174.63 816.205 171.112 816.205 Q169.19 816.205 166.991 816.622 Q164.792 817.039 162.153 817.918 L162.153 813.752 Q164.815 813.011 167.13 812.641 Q169.468 812.27 171.528 812.27 Q176.852 812.27 179.954 814.701 Q183.056 817.108 183.056 821.228 Q183.056 824.099 181.413 826.09 Q179.769 828.057 176.737 828.821 Z" fill="#000000" fill-rule="evenodd" fill-opacity="1" /><path clip-path="url(#clip860)" d="M 0 0 M126.205 616.632 Q122.593 616.632 120.765 620.197 Q118.959 623.738 118.959 630.868 Q118.959 637.974 120.765 641.539 Q122.593 645.081 126.205 645.081 Q129.839 645.081 131.644 641.539 Q133.473 637.974 133.473 630.868 Q133.473 623.738 131.644 620.197 Q129.839 616.632 126.205 616.632 M126.205 612.928 Q132.015 612.928 135.07 617.535 Q138.149 622.118 138.149 630.868 Q138.149 639.595 135.07 644.201 Q132.015 648.784 126.205 648.784 Q120.394 648.784 117.316 644.201 Q114.26 639.595 114.26 630.868 Q114.26 622.118 117.316 617.535 Q120.394 612.928 126.205 612.928 Z" fill="#000000" fill-rule="evenodd" fill-opacity="1" /><path clip-path="url(#clip860)" d="M 0 0 M146.366 642.234 L151.251 642.234 L151.251 648.113 L146.366 648.113 L146.366 642.234 Z" fill="#000000" fill-rule="evenodd" fill-opacity="1" /><path clip-path="url(#clip860)" d="M 0 0 M174.283 617.627 L162.477 636.076 L174.283 636.076 L174.283 617.627 M173.056 613.553 L178.936 613.553 L178.936 636.076 L183.866 636.076 L183.866 639.965 L178.936 639.965 L178.936 648.113 L174.283 648.113 L174.283 639.965 L158.681 639.965 L158.681 635.451 L173.056 613.553 Z" fill="#000000" fill-rule="evenodd" fill-opacity="1" /><path clip-path="url(#clip860)" d="M 0 0 M127.686 417.29 Q124.075 417.29 122.246 420.855 Q120.441 424.396 120.441 431.526 Q120.441 438.632 122.246 442.197 Q124.075 445.739 127.686 445.739 Q131.32 445.739 133.126 442.197 Q134.954 438.632 134.954 431.526 Q134.954 424.396 133.126 420.855 Q131.32 417.29 127.686 417.29 M127.686 413.586 Q133.496 413.586 136.552 418.193 Q139.63 422.776 139.63 431.526 Q139.63 440.253 136.552 444.859 Q133.496 449.442 127.686 449.442 Q121.876 449.442 118.797 444.859 Q115.742 440.253 115.742 431.526 Q115.742 422.776 118.797 418.193 Q121.876 413.586 127.686 413.586 Z" fill="#000000" fill-rule="evenodd" fill-opacity="1" /><path clip-path="url(#clip860)" d="M 0 0 M147.848 442.891 L152.732 442.891 L152.732 448.771 L147.848 448.771 L147.848 442.891 Z" fill="#000000" fill-rule="evenodd" fill-opacity="1" /><path clip-path="url(#clip860)" d="M 0 0 M162.964 414.211 L181.32 414.211 L181.32 418.146 L167.246 418.146 L167.246 426.618 Q168.264 426.271 169.283 426.109 Q170.302 425.924 171.32 425.924 Q177.107 425.924 180.487 429.095 Q183.866 432.267 183.866 437.683 Q183.866 443.262 180.394 446.364 Q176.922 449.442 170.602 449.442 Q168.427 449.442 166.158 449.072 Q163.913 448.702 161.505 447.961 L161.505 443.262 Q163.589 444.396 165.811 444.952 Q168.033 445.507 170.51 445.507 Q174.514 445.507 176.852 443.401 Q179.19 441.294 179.19 437.683 Q179.19 434.072 176.852 431.966 Q174.514 429.859 170.51 429.859 Q168.635 429.859 166.76 430.276 Q164.908 430.692 162.964 431.572 L162.964 414.211 Z" fill="#000000" fill-rule="evenodd" fill-opacity="1" /><path clip-path="url(#clip860)" d="M 0 0 M126.529 217.948 Q122.918 217.948 121.089 221.512 Q119.283 225.054 119.283 232.184 Q119.283 239.29 121.089 242.855 Q122.918 246.397 126.529 246.397 Q130.163 246.397 131.968 242.855 Q133.797 239.29 133.797 232.184 Q133.797 225.054 131.968 221.512 Q130.163 217.948 126.529 217.948 M126.529 214.244 Q132.339 214.244 135.394 218.85 Q138.473 223.434 138.473 232.184 Q138.473 240.91 135.394 245.517 Q132.339 250.1 126.529 250.1 Q120.718 250.1 117.64 245.517 Q114.584 240.91 114.584 232.184 Q114.584 223.434 117.64 218.85 Q120.718 214.244 126.529 214.244 Z" fill="#000000" fill-rule="evenodd" fill-opacity="1" /><path clip-path="url(#clip860)" d="M 0 0 M146.691 243.549 L151.575 243.549 L151.575 249.429 L146.691 249.429 L146.691 243.549 Z" fill="#000000" fill-rule="evenodd" fill-opacity="1" /><path clip-path="url(#clip860)" d="M 0 0 M172.339 230.286 Q169.19 230.286 167.339 232.438 Q165.51 234.591 165.51 238.341 Q165.51 242.068 167.339 244.244 Q169.19 246.397 172.339 246.397 Q175.487 246.397 177.315 244.244 Q179.167 242.068 179.167 238.341 Q179.167 234.591 177.315 232.438 Q175.487 230.286 172.339 230.286 M181.621 215.633 L181.621 219.892 Q179.862 219.059 178.056 218.619 Q176.274 218.179 174.514 218.179 Q169.885 218.179 167.431 221.304 Q165.001 224.429 164.653 230.749 Q166.019 228.735 168.079 227.67 Q170.139 226.582 172.616 226.582 Q177.825 226.582 180.834 229.753 Q183.866 232.901 183.866 238.341 Q183.866 243.665 180.718 246.883 Q177.57 250.1 172.339 250.1 Q166.343 250.1 163.172 245.517 Q160.001 240.91 160.001 232.184 Q160.001 223.989 163.89 219.128 Q167.778 214.244 174.329 214.244 Q176.089 214.244 177.871 214.591 Q179.676 214.938 181.621 215.633 Z" fill="#000000" fill-rule="evenodd" fill-opacity="1" /><path clip-path="url(#clip860)" d="M 0 0 M41.7242 987.803 Q42.4244 985.734 44.7161 983.793 Q47.0077 981.819 51.0181 979.846 L64.0042 973.321 L64.0042 980.228 L51.8138 986.307 Q47.0395 988.663 45.48 990.891 Q43.9204 993.087 43.9204 996.906 L43.9204 1003.91 L64.0042 1003.91 L64.0042 1010.34 L16.4842 1010.34 L16.4842 995.824 Q16.4842 987.676 19.8898 983.665 Q23.2955 979.655 30.1704 979.655 Q34.6582 979.655 37.6183 981.756 Q40.5784 983.825 41.7242 987.803 M21.7677 1003.91 L38.6368 1003.91 L38.6368 995.824 Q38.6368 991.177 36.5043 988.822 Q34.34 986.435 30.1704 986.435 Q26.0009 986.435 23.9002 988.822 Q21.7677 991.177 21.7677 995.824 L21.7677 1003.91 Z" fill="#000000" fill-rule="evenodd" fill-opacity="1" /><path clip-path="url(#clip860)" d="M 0 0 M44.7161 937.737 L47.5806 937.737 L47.5806 964.664 Q53.6281 964.282 56.8109 961.035 Q59.9619 957.757 59.9619 951.932 Q59.9619 948.559 59.1344 945.408 Q58.3069 942.225 56.6518 939.106 L62.1899 939.106 Q63.5267 942.257 64.227 945.567 Q64.9272 948.877 64.9272 952.283 Q64.9272 960.813 59.9619 965.81 Q54.9967 970.775 46.5303 970.775 Q37.7774 970.775 32.6531 966.064 Q27.4968 961.322 27.4968 953.301 Q27.4968 946.108 32.1438 941.938 Q36.7589 937.737 44.7161 937.737 M42.9973 943.593 Q38.1912 943.657 35.3266 946.299 Q32.4621 948.909 32.4621 953.237 Q32.4621 958.139 35.2312 961.099 Q38.0002 964.027 43.0292 964.473 L42.9973 943.593 Z" fill="#000000" fill-rule="evenodd" fill-opacity="1" /><path clip-path="url(#clip860)" d="M 0 0 M28.3562 931.53 L28.3562 925.674 L56.1743 918.353 L28.3562 911.065 L28.3562 904.158 L56.1743 896.837 L28.3562 889.549 L28.3562 883.692 L64.0042 893.018 L64.0042 899.925 L34.7856 907.595 L64.0042 915.298 L64.0042 922.205 L28.3562 931.53 Z" fill="#000000" fill-rule="evenodd" fill-opacity="1" /><path clip-path="url(#clip860)" d="M 0 0 M46.0847 858.611 Q46.0847 865.709 47.7079 868.446 Q49.3312 871.183 53.2461 871.183 Q56.3653 871.183 58.2114 869.146 Q60.0256 867.078 60.0256 863.545 Q60.0256 858.675 56.5881 855.747 Q53.1188 852.787 47.3897 852.787 L46.0847 852.787 L46.0847 858.611 M43.6657 846.93 L64.0042 846.93 L64.0042 852.787 L58.5933 852.787 Q61.8398 854.792 63.3994 857.784 Q64.9272 860.776 64.9272 865.104 Q64.9272 870.579 61.8716 873.825 Q58.7843 877.04 53.6281 877.04 Q47.6125 877.04 44.5569 873.03 Q41.5014 868.987 41.5014 860.998 L41.5014 852.787 L40.9285 852.787 Q36.8862 852.787 34.6901 855.46 Q32.4621 858.102 32.4621 862.908 Q32.4621 865.964 33.1941 868.86 Q33.9262 871.756 35.3903 874.43 L29.9795 874.43 Q28.7381 871.215 28.1334 868.192 Q27.4968 865.168 27.4968 862.303 Q27.4968 854.569 31.5072 850.75 Q35.5176 846.93 43.6657 846.93 Z" fill="#000000" fill-rule="evenodd" fill-opacity="1" /><path clip-path="url(#clip860)" d="M 0 0 M33.8307 814.21 Q33.2578 815.197 33.0032 816.375 Q32.7167 817.521 32.7167 818.921 Q32.7167 823.886 35.9632 826.56 Q39.1779 829.202 45.2253 829.202 L64.0042 829.202 L64.0042 835.09 L28.3562 835.09 L28.3562 829.202 L33.8944 829.202 Q30.6479 827.356 29.0883 824.396 Q27.4968 821.435 27.4968 817.202 Q27.4968 816.598 27.5923 815.865 Q27.656 815.133 27.8151 814.242 L33.8307 814.21 Z" fill="#000000" fill-rule="evenodd" fill-opacity="1" /><path clip-path="url(#clip860)" d="M 0 0 M33.7671 785.756 L14.479 785.756 L14.479 779.899 L64.0042 779.899 L64.0042 785.756 L58.657 785.756 Q61.8398 787.602 63.3994 790.434 Q64.9272 793.235 64.9272 797.182 Q64.9272 803.643 59.771 807.717 Q54.6147 811.76 46.212 811.76 Q37.8093 811.76 32.6531 807.717 Q27.4968 803.643 27.4968 797.182 Q27.4968 793.235 29.0564 790.434 Q30.5842 787.602 33.7671 785.756 M46.212 805.712 Q52.6732 805.712 56.3653 803.07 Q60.0256 800.397 60.0256 795.75 Q60.0256 791.103 56.3653 788.429 Q52.6732 785.756 46.212 785.756 Q39.7508 785.756 36.0905 788.429 Q32.3984 791.103 32.3984 795.75 Q32.3984 800.397 36.0905 803.07 Q39.7508 805.712 46.212 805.712 Z" fill="#000000" fill-rule="evenodd" fill-opacity="1" /><path clip-path="url(#clip860)" d="M 0 0 M20.8447 727.573 Q20.8447 734.575 26.0645 738.713 Q31.2844 742.819 40.2919 742.819 Q49.2675 742.819 54.4874 738.713 Q59.7073 734.575 59.7073 727.573 Q59.7073 720.571 54.4874 716.497 Q49.2675 712.391 40.2919 712.391 Q31.2844 712.391 26.0645 716.497 Q20.8447 720.571 20.8447 727.573 M15.6248 727.573 Q15.6248 717.579 22.3406 711.595 Q29.0246 705.611 40.2919 705.611 Q51.5274 705.611 58.2432 711.595 Q64.9272 717.579 64.9272 727.573 Q64.9272 737.599 58.2432 743.615 Q51.5592 749.598 40.2919 749.598 Q29.0246 749.598 22.3406 743.615 Q15.6248 737.599 15.6248 727.573 Z" fill="#000000" fill-rule="evenodd" fill-opacity="1" /><path clip-path="url(#clip860)" d="M 0 0 M46.212 670.218 Q39.7508 670.218 36.0905 672.892 Q32.3984 675.533 32.3984 680.18 Q32.3984 684.827 36.0905 687.501 Q39.7508 690.143 46.212 690.143 Q52.6732 690.143 56.3653 687.501 Q60.0256 684.827 60.0256 680.18 Q60.0256 675.533 56.3653 672.892 Q52.6732 670.218 46.212 670.218 M33.7671 690.143 Q30.5842 688.297 29.0564 685.496 Q27.4968 682.663 27.4968 678.748 Q27.4968 672.255 32.6531 668.213 Q37.8093 664.139 46.212 664.139 Q54.6147 664.139 59.771 668.213 Q64.9272 672.255 64.9272 678.748 Q64.9272 682.663 63.3994 685.496 Q61.8398 688.297 58.657 690.143 L64.0042 690.143 L64.0042 696.031 L14.479 696.031 L14.479 690.143 L33.7671 690.143 Z" fill="#000000" fill-rule="evenodd" fill-opacity="1" /><path clip-path="url(#clip860)" d="M 0 0 M18.2347 648.638 L28.3562 648.638 L28.3562 636.575 L32.9077 636.575 L32.9077 648.638 L52.2594 648.638 Q56.6199 648.638 57.8613 647.461 Q59.1026 646.251 59.1026 642.591 L59.1026 636.575 L64.0042 636.575 L64.0042 642.591 Q64.0042 649.37 61.4897 651.949 Q58.9434 654.527 52.2594 654.527 L32.9077 654.527 L32.9077 658.823 L28.3562 658.823 L28.3562 654.527 L18.2347 654.527 L18.2347 648.638 Z" fill="#000000" fill-rule="evenodd" fill-opacity="1" /><path clip-path="url(#clip860)" d="M 0 0 M46.0847 612.672 Q46.0847 619.77 47.7079 622.507 Q49.3312 625.244 53.2461 625.244 Q56.3653 625.244 58.2114 623.207 Q60.0256 621.139 60.0256 617.606 Q60.0256 612.736 56.5881 609.808 Q53.1188 606.847 47.3897 606.847 L46.0847 606.847 L46.0847 612.672 M43.6657 600.991 L64.0042 600.991 L64.0042 606.847 L58.5933 606.847 Q61.8398 608.853 63.3994 611.845 Q64.9272 614.836 64.9272 619.165 Q64.9272 624.64 61.8716 627.886 Q58.7843 631.101 53.6281 631.101 Q47.6125 631.101 44.5569 627.09 Q41.5014 623.048 41.5014 615.059 L41.5014 606.847 L40.9285 606.847 Q36.8862 606.847 34.6901 609.521 Q32.4621 612.163 32.4621 616.969 Q32.4621 620.025 33.1941 622.921 Q33.9262 625.817 35.3903 628.491 L29.9795 628.491 Q28.7381 625.276 28.1334 622.253 Q27.4968 619.229 27.4968 616.364 Q27.4968 608.63 31.5072 604.81 Q35.5176 600.991 43.6657 600.991 Z" fill="#000000" fill-rule="evenodd" fill-opacity="1" /><path clip-path="url(#clip860)" d="M 0 0 M28.3562 588.928 L28.3562 583.072 L64.0042 583.072 L64.0042 588.928 L28.3562 588.928 M14.479 588.928 L14.479 583.072 L21.895 583.072 L21.895 588.928 L14.479 588.928 Z" fill="#000000" fill-rule="evenodd" fill-opacity="1" /><path clip-path="url(#clip860)" d="M 0 0 M42.4881 541.185 L64.0042 541.185 L64.0042 547.042 L42.679 547.042 Q37.6183 547.042 35.1038 549.015 Q32.5894 550.988 32.5894 554.935 Q32.5894 559.678 35.6131 562.415 Q38.6368 565.152 43.8567 565.152 L64.0042 565.152 L64.0042 571.04 L28.3562 571.04 L28.3562 565.152 L33.8944 565.152 Q30.6797 563.051 29.0883 560.219 Q27.4968 557.354 27.4968 553.63 Q27.4968 547.487 31.3163 544.336 Q35.1038 541.185 42.4881 541.185 Z" fill="#000000" fill-rule="evenodd" fill-opacity="1" /><path clip-path="url(#clip860)" d="M 0 0 M44.7161 499.012 L47.5806 499.012 L47.5806 525.939 Q53.6281 525.557 56.8109 522.311 Q59.9619 519.033 59.9619 513.208 Q59.9619 509.834 59.1344 506.683 Q58.3069 503.5 56.6518 500.381 L62.1899 500.381 Q63.5267 503.532 64.227 506.842 Q64.9272 510.152 64.9272 513.558 Q64.9272 522.088 59.9619 527.085 Q54.9967 532.05 46.5303 532.05 Q37.7774 532.05 32.6531 527.34 Q27.4968 522.597 27.4968 514.577 Q27.4968 507.383 32.1438 503.214 Q36.7589 499.012 44.7161 499.012 M42.9973 504.869 Q38.1912 504.933 35.3266 507.574 Q32.4621 510.184 32.4621 514.513 Q32.4621 519.415 35.2312 522.375 Q38.0002 525.303 43.0292 525.748 L42.9973 504.869 Z" fill="#000000" fill-rule="evenodd" fill-opacity="1" /><path clip-path="url(#clip860)" d="M 0 0 M33.7671 465.943 L14.479 465.943 L14.479 460.086 L64.0042 460.086 L64.0042 465.943 L58.657 465.943 Q61.8398 467.789 63.3994 470.621 Q64.9272 473.422 64.9272 477.369 Q64.9272 483.83 59.771 487.904 Q54.6147 491.946 46.212 491.946 Q37.8093 491.946 32.6531 487.904 Q27.4968 483.83 27.4968 477.369 Q27.4968 473.422 29.0564 470.621 Q30.5842 467.789 33.7671 465.943 M46.212 485.899 Q52.6732 485.899 56.3653 483.257 Q60.0256 480.584 60.0256 475.937 Q60.0256 471.29 56.3653 468.616 Q52.6732 465.943 46.212 465.943 Q39.7508 465.943 36.0905 468.616 Q32.3984 471.29 32.3984 475.937 Q32.3984 480.584 36.0905 483.257 Q39.7508 485.899 46.212 485.899 Z" fill="#000000" fill-rule="evenodd" fill-opacity="1" /><polyline clip-path="url(#clip862)" style="stroke:#eec900; stroke-width:16; stroke-opacity:1; fill:none" points="
  280.231,865.07 324.335,872.805 393.27,1094.84 660.113,1384.24 1043.69,324.071 1451.36,153.066 2112.69,103.949 
  "/>
<polyline clip-path="url(#clip862)" style="stroke:#20b2aa; stroke-width:16; stroke-opacity:1; fill:none" points="
  477.426,93.1919 710.045,96.067 888.145,87.4387 1078.96,86.1857 1285.98,93.308 1487.1,93.8311 1696.19,96.7114 1888.04,96.4063 2105.36,86.3609 2292.39,93.6053 
  
  "/>
<path clip-path="url(#clip860)" d="
M1857.08 1377.32 L2281.66 1377.32 L2281.66 1195.88 L1857.08 1195.88  Z
  " fill="#ffffff" fill-rule="evenodd" fill-opacity="1"/>
<polyline clip-path="url(#clip860)" style="stroke:#000000; stroke-width:4; stroke-opacity:1; fill:none" points="
  1857.08,1377.32 2281.66,1377.32 2281.66,1195.88 1857.08,1195.88 1857.08,1377.32 
  "/>
<polyline clip-path="url(#clip860)" style="stroke:#eec900; stroke-width:4; stroke-opacity:1; fill:none" points="
  1880.78,1256.36 2022.97,1256.36 
  "/>
<path clip-path="url(#clip860)" d="M 0 0 M2051.35 1242.92 L2051.35 1255.9 L2057.23 1255.9 Q2060.49 1255.9 2062.27 1254.21 Q2064.05 1252.52 2064.05 1249.4 Q2064.05 1246.3 2062.27 1244.61 Q2060.49 1242.92 2057.23 1242.92 L2051.35 1242.92 M2046.67 1239.08 L2057.23 1239.08 Q2063.04 1239.08 2066 1241.71 Q2068.99 1244.33 2068.99 1249.4 Q2068.99 1254.52 2066 1257.13 Q2063.04 1259.75 2057.23 1259.75 L2051.35 1259.75 L2051.35 1273.64 L2046.67 1273.64 L2046.67 1239.08 Z" fill="#000000" fill-rule="evenodd" fill-opacity="1" /><path clip-path="url(#clip860)" d="M 0 0 M2079.93 1257.13 L2079.93 1269.79 L2087.43 1269.79 Q2091.21 1269.79 2093.01 1268.24 Q2094.84 1266.67 2094.84 1263.45 Q2094.84 1260.21 2093.01 1258.68 Q2091.21 1257.13 2087.43 1257.13 L2079.93 1257.13 M2079.93 1242.92 L2079.93 1253.33 L2086.86 1253.33 Q2090.28 1253.33 2091.95 1252.06 Q2093.64 1250.77 2093.64 1248.13 Q2093.64 1245.51 2091.95 1244.21 Q2090.28 1242.92 2086.86 1242.92 L2079.93 1242.92 M2075.26 1239.08 L2087.2 1239.08 Q2092.55 1239.08 2095.44 1241.3 Q2098.34 1243.52 2098.34 1247.62 Q2098.34 1250.79 2096.86 1252.66 Q2095.37 1254.54 2092.5 1255 Q2095.95 1255.74 2097.85 1258.1 Q2099.77 1260.44 2099.77 1263.96 Q2099.77 1268.59 2096.62 1271.11 Q2093.48 1273.64 2087.67 1273.64 L2075.26 1273.64 L2075.26 1239.08 Z" fill="#000000" fill-rule="evenodd" fill-opacity="1" /><path clip-path="url(#clip860)" d="M 0 0 M2115.23 1273.64 L2102.04 1239.08 L2106.92 1239.08 L2117.87 1268.17 L2128.85 1239.08 L2133.71 1239.08 L2120.54 1273.64 L2115.23 1273.64 Z" fill="#000000" fill-rule="evenodd" fill-opacity="1" /><path clip-path="url(#clip860)" d="M 0 0 M2138.75 1239.08 L2143.43 1239.08 L2143.43 1273.64 L2138.75 1273.64 L2138.75 1239.08 Z" fill="#000000" fill-rule="evenodd" fill-opacity="1" /><polyline clip-path="url(#clip860)" style="stroke:#20b2aa; stroke-width:4; stroke-opacity:1; fill:none" points="
  1880.78,1316.84 2022.97,1316.84 
  "/>
<path clip-path="url(#clip860)" d="M 0 0 M2068.92 1300.69 L2068.92 1305.25 Q2066.25 1303.98 2063.89 1303.35 Q2061.53 1302.73 2059.33 1302.73 Q2055.51 1302.73 2053.43 1304.21 Q2051.37 1305.69 2051.37 1308.42 Q2051.37 1310.71 2052.74 1311.89 Q2054.12 1313.05 2057.97 1313.77 L2060.79 1314.35 Q2066.02 1315.34 2068.5 1317.87 Q2071 1320.37 2071 1324.58 Q2071 1329.6 2067.62 1332.19 Q2064.26 1334.79 2057.76 1334.79 Q2055.3 1334.79 2052.53 1334.23 Q2049.77 1333.68 2046.81 1332.59 L2046.81 1327.77 Q2049.66 1329.37 2052.39 1330.18 Q2055.12 1330.99 2057.76 1330.99 Q2061.76 1330.99 2063.94 1329.42 Q2066.11 1327.84 2066.11 1324.93 Q2066.11 1322.38 2064.54 1320.94 Q2062.99 1319.51 2059.43 1318.79 L2056.58 1318.24 Q2051.35 1317.19 2049.01 1314.97 Q2046.67 1312.75 2046.67 1308.79 Q2046.67 1304.21 2049.89 1301.57 Q2053.13 1298.93 2058.8 1298.93 Q2061.23 1298.93 2063.75 1299.37 Q2066.28 1299.81 2068.92 1300.69 Z" fill="#000000" fill-rule="evenodd" fill-opacity="1" /><path clip-path="url(#clip860)" d="M 0 0 M2090.72 1304.16 L2084.38 1321.36 L2097.09 1321.36 L2090.72 1304.16 M2088.08 1299.56 L2093.38 1299.56 L2106.55 1334.12 L2101.69 1334.12 L2098.55 1325.25 L2082.97 1325.25 L2079.82 1334.12 L2074.89 1334.12 L2088.08 1299.56 Z" fill="#000000" fill-rule="evenodd" fill-opacity="1" /><path clip-path="url(#clip860)" d="M 0 0 M2127.99 1317.91 Q2129.49 1318.42 2130.91 1320.09 Q2132.34 1321.75 2133.78 1324.67 L2138.52 1334.12 L2133.5 1334.12 L2129.08 1325.25 Q2127.36 1321.78 2125.74 1320.64 Q2124.15 1319.51 2121.37 1319.51 L2116.28 1319.51 L2116.28 1334.12 L2111.6 1334.12 L2111.6 1299.56 L2122.16 1299.56 Q2128.08 1299.56 2131 1302.03 Q2133.92 1304.51 2133.92 1309.51 Q2133.92 1312.77 2132.39 1314.93 Q2130.88 1317.08 2127.99 1317.91 M2116.28 1303.4 L2116.28 1315.67 L2122.16 1315.67 Q2125.54 1315.67 2127.25 1314.12 Q2128.98 1312.54 2128.98 1309.51 Q2128.98 1306.48 2127.25 1304.95 Q2125.54 1303.4 2122.16 1303.4 L2116.28 1303.4 Z" fill="#000000" fill-rule="evenodd" fill-opacity="1" /><path clip-path="url(#clip860)" d="M 0 0 M2165.26 1300.69 L2165.26 1305.25 Q2162.6 1303.98 2160.23 1303.35 Q2157.87 1302.73 2155.67 1302.73 Q2151.86 1302.73 2149.77 1304.21 Q2147.71 1305.69 2147.71 1308.42 Q2147.71 1310.71 2149.08 1311.89 Q2150.47 1313.05 2154.31 1313.77 L2157.13 1314.35 Q2162.36 1315.34 2164.84 1317.87 Q2167.34 1320.37 2167.34 1324.58 Q2167.34 1329.6 2163.96 1332.19 Q2160.61 1334.79 2154.1 1334.79 Q2151.65 1334.79 2148.87 1334.23 Q2146.11 1333.68 2143.15 1332.59 L2143.15 1327.77 Q2146 1329.37 2148.73 1330.18 Q2151.46 1330.99 2154.1 1330.99 Q2158.11 1330.99 2160.28 1329.42 Q2162.46 1327.84 2162.46 1324.93 Q2162.46 1322.38 2160.88 1320.94 Q2159.33 1319.51 2155.77 1318.79 L2152.92 1318.24 Q2147.69 1317.19 2145.35 1314.97 Q2143.01 1312.75 2143.01 1308.79 Q2143.01 1304.21 2146.23 1301.57 Q2149.47 1298.93 2155.14 1298.93 Q2157.57 1298.93 2160.1 1299.37 Q2162.62 1299.81 2165.26 1300.69 Z" fill="#000000" fill-rule="evenodd" fill-opacity="1" /><path clip-path="url(#clip860)" d="M 0 0 M2188.66 1302.73 Q2183.57 1302.73 2180.56 1306.52 Q2177.57 1310.32 2177.57 1316.87 Q2177.57 1323.4 2180.56 1327.19 Q2183.57 1330.99 2188.66 1330.99 Q2193.75 1330.99 2196.72 1327.19 Q2199.7 1323.4 2199.7 1316.87 Q2199.7 1310.32 2196.72 1306.52 Q2193.75 1302.73 2188.66 1302.73 M2188.66 1298.93 Q2195.93 1298.93 2200.28 1303.81 Q2204.63 1308.68 2204.63 1316.87 Q2204.63 1325.04 2200.28 1329.93 Q2195.93 1334.79 2188.66 1334.79 Q2181.37 1334.79 2176.99 1329.93 Q2172.64 1325.06 2172.64 1316.87 Q2172.64 1308.68 2176.99 1303.81 Q2181.37 1298.93 2188.66 1298.93 Z" fill="#000000" fill-rule="evenodd" fill-opacity="1" /><path clip-path="url(#clip860)" d="M 0 0 M2216.62 1303.4 L2216.62 1316.38 L2222.5 1316.38 Q2225.77 1316.38 2227.55 1314.69 Q2229.33 1313 2229.33 1309.88 Q2229.33 1306.78 2227.55 1305.09 Q2225.77 1303.4 2222.5 1303.4 L2216.62 1303.4 M2211.95 1299.56 L2222.5 1299.56 Q2228.31 1299.56 2231.28 1302.19 Q2234.26 1304.81 2234.26 1309.88 Q2234.26 1315 2231.28 1317.61 Q2228.31 1320.23 2222.5 1320.23 L2216.62 1320.23 L2216.62 1334.12 L2211.95 1334.12 L2211.95 1299.56 Z" fill="#000000" fill-rule="evenodd" fill-opacity="1" /></svg>
